<svg xmlns="http://www.w3.org/2000/svg" viewBox="0 0 83.33 73.66"><defs><style>.cls-1{fill:#fff;}</style></defs><title>Asset 1</title><g id="Layer_2" data-name="Layer 2"><g id="Layer_1-2" data-name="Layer 1"><path class="cls-1" d="M83.33,68.06c-2.49,0-3.56-.87-5.19-2.17a12.85,12.85,0,0,0-17.39,0c-1.63,1.3-2.7,2.17-5.19,2.17s-3.57-.87-5.2-2.17a12.83,12.83,0,0,0-17.38,0c-1.63,1.3-2.71,2.17-5.2,2.17s-3.57-.87-5.2-2.17a12.55,12.55,0,0,0-8.69-3.39A12.6,12.6,0,0,0,5.2,65.89c-1.63,1.3-2.71,2.17-5.2,2.17v5.6a12.51,12.51,0,0,0,8.69-3.4c1.63-1.3,2.71-2.16,5.2-2.16s3.57.86,5.2,2.16a12.81,12.81,0,0,0,17.38,0c1.63-1.3,2.71-2.16,5.2-2.16s3.56.86,5.19,2.16a12.82,12.82,0,0,0,17.39,0C65.88,69,67,68.1,69.45,68.1S73,69,74.64,70.26a12.55,12.55,0,0,0,8.69,3.4"/><path class="cls-1" d="M83.33,47.22c-2.49,0-3.56-.86-5.19-2.16a12.85,12.85,0,0,0-17.39,0c-1.63,1.3-2.7,2.16-5.19,2.16s-3.57-.86-5.2-2.16a12.83,12.83,0,0,0-17.38,0c-1.63,1.3-2.71,2.16-5.2,2.16s-3.57-.86-5.2-2.16a12.55,12.55,0,0,0-8.69-3.39A12.6,12.6,0,0,0,5.2,45.06c-1.63,1.3-2.71,2.16-5.2,2.16v5.6a12.55,12.55,0,0,0,8.69-3.39c1.63-1.3,2.71-2.16,5.2-2.16s3.57.86,5.2,2.16a12.83,12.83,0,0,0,17.38,0c1.63-1.3,2.71-2.16,5.2-2.16s3.56.86,5.19,2.16a12.85,12.85,0,0,0,17.39,0c1.63-1.3,2.71-2.16,5.2-2.16s3.56.86,5.19,2.16a12.6,12.6,0,0,0,8.69,3.39"/><path class="cls-1" d="M83.33,26.39c-2.49,0-3.56-.86-5.19-2.17a12.85,12.85,0,0,0-17.39,0c-1.63,1.31-2.7,2.17-5.19,2.17s-3.57-.86-5.2-2.17a12.83,12.83,0,0,0-17.38,0c-1.63,1.31-2.71,2.17-5.2,2.17s-3.57-.86-5.2-2.17a12.55,12.55,0,0,0-8.69-3.39A12.6,12.6,0,0,0,5.2,24.22C3.57,25.53,2.49,26.39,0,26.39V32A12.55,12.55,0,0,0,8.69,28.6c1.63-1.31,2.71-2.17,5.2-2.17s3.57.86,5.2,2.17a12.83,12.83,0,0,0,17.38,0c1.63-1.31,2.71-2.17,5.2-2.17s3.56.86,5.19,2.17a12.85,12.85,0,0,0,17.39,0c1.63-1.31,2.71-2.17,5.2-2.17s3.56.86,5.19,2.17A12.6,12.6,0,0,0,83.33,32"/><path class="cls-1" d="M83.33,5.56c-2.49,0-3.56-.87-5.19-2.17a12.85,12.85,0,0,0-17.39,0c-1.63,1.3-2.7,2.17-5.19,2.17S52,4.69,50.36,3.39A12.83,12.83,0,0,0,33,3.39c-1.63,1.3-2.71,2.17-5.2,2.17s-3.57-.87-5.2-2.17A12.55,12.55,0,0,0,13.89,0,12.6,12.6,0,0,0,5.2,3.39C3.57,4.69,2.49,5.56,0,5.56v5.6a12.51,12.51,0,0,0,8.69-3.4c1.63-1.3,2.71-2.16,5.2-2.16s3.57.86,5.2,2.16a12.55,12.55,0,0,0,8.69,3.4,12.53,12.53,0,0,0,8.69-3.4c1.63-1.3,2.71-2.16,5.2-2.16s3.56.86,5.19,2.16a12.56,12.56,0,0,0,8.7,3.4,12.55,12.55,0,0,0,8.69-3.4C65.88,6.46,67,5.6,69.45,5.6s3.56.86,5.19,2.16a12.55,12.55,0,0,0,8.69,3.4"/></g></g></svg>