<svg xmlns="http://www.w3.org/2000/svg" width="1094" height="352" viewBox="0 0 1094 352">
  <g id="Group_11" data-name="Group 11" transform="translate(-93 -58)">
    <text id="_92_of_your_water_co" data-name="92% of your water co" transform="translate(314 212)" fill="#fff" font-size="24" font-family="MuseoSlab-500, Museo Slab" font-weight="500"><tspan x="0" y="0" xml:space="preserve"> that is </tspan><tspan y="0" font-size="120">3496</tspan><tspan y="0" xml:space="preserve"> liters of water everyday </tspan></text>
    <text id="_92_of_your_water_co-2" data-name="92% of your water co" transform="translate(568 322)" fill="#fff" font-size="24" font-family="MuseoSlab-500, Museo Slab" font-weight="500"><tspan x="0" y="0">One liter of water</tspan></text>
    <g id="water_icon" transform="translate(508 311.79)">
      <g id="_03" data-name="03">
        <g id="Group-14">
          <g id="Group-13">
            <path id="Combined-Shape-Copy-3" d="M227.258,229.688v2.518q-.094,0-.19,0c-2.456,0-3.6-1.593-4.585-2.85-.9-1.174-1.474-1.844-2.62-1.844s-1.719.671-2.62,1.844c-.983,1.258-2.211,2.85-4.585,2.85-2.456,0-3.6-1.593-4.585-2.85-.9-1.174-1.474-1.844-2.62-1.844s-1.719.671-2.62,1.844c-.983,1.258-2.211,2.85-4.585,2.85-2.456,0-3.6-1.593-4.585-2.85-.9-1.174-1.474-1.844-2.62-1.844s-1.719.671-2.62,1.844c-.96,1.229-2.077,2.779-4.421,2.848V229.69c1.039-.062,1.6-.723,2.456-1.84.983-1.258,2.129-2.85,4.585-2.85s3.6,1.593,4.585,2.85c.9,1.174,1.474,1.844,2.62,1.844s1.719-.671,2.62-1.844c.983-1.258,2.211-2.85,4.585-2.85,2.456,0,3.6,1.593,4.585,2.85.9,1.174,1.474,1.844,2.62,1.844s1.719-.671,2.62-1.844c.983-1.258,2.211-2.85,4.585-2.85,2.456,0,3.6,1.593,4.585,2.85.9,1.174,1.474,1.844,2.62,1.844Q227.166,229.695,227.258,229.688Z" transform="translate(-184 -225)" fill="#fff"/>
          </g>
        </g>
      </g>
    </g>
    <rect id="Rectangle_8" data-name="Rectangle 8" width="1094" height="352" transform="translate(93 58)" fill="none"/>
  </g>
</svg>
