<svg xmlns="http://www.w3.org/2000/svg" viewBox="0 0 374.8 75"><defs><style>.cls-1{fill:#fff;}</style></defs><title>Asset 1</title><g id="Layer_2" data-name="Layer 2"><g id="Layer_1-2" data-name="Layer 1"><path class="cls-1" d="M374.8,0V37.7c-8.3,0-16.7,3.9-23.1,11.6C338,65.8,319.6,75,299.8,75s-38.2-9.2-51.9-25.7c-12.7-15.4-33.4-15.4-46.1,0C188.1,65.8,169.7,75,149.9,75S111.7,65.8,98,49.3c-12.7-15.4-33.4-15.4-46.1,0C38.2,65.8,19.8,75,0,75V36.9c8.2,0,16.7-3.8,23.1-11.4C36.8,9,55.2,0,75,0s38.2,9,51.9,25.5c12.7,15.4,33.4,15.4,46.1,0C186.7,9,205.1,0,224.9,0s38.2,9,51.9,25.5c12.8,15.4,33.4,15.4,46.1,0C336.6,9,354.9,0,374.8,0Z"/></g></g></svg>