<svg xmlns="http://www.w3.org/2000/svg" viewBox="0 0 205.34 25.5"><defs><style>.cls-1{fill:#fff;}</style></defs><title>Asset 3</title><g id="Layer_2" data-name="Layer 2"><g id="Layer_1-2" data-name="Layer 1"><path class="cls-1" d="M120.32,16.83c4.32-5.24,11.32-5.24,15.67,0a22.29,22.29,0,0,0,35.29,0c4.32-5.24,11.36-5.24,15.68,0A22.71,22.71,0,0,0,204.6,25.5l.74,0V12.62a10.05,10.05,0,0,1-8.56-3.88C192.13,3.13,185.9,0,179.14,0s-13,3.13-17.65,8.74c-4.32,5.23-11.35,5.23-15.67,0C141.16,3.13,134.9,0,128.17,0s-13,3.13-17.64,8.74a10.27,10.27,0,0,1-7.86,3.94V25.5A22.72,22.72,0,0,0,120.32,16.83Z"/><path class="cls-1" d="M17.65,16.83c4.31-5.24,11.32-5.24,15.67,0A22.72,22.72,0,0,0,51,25.5a22.76,22.76,0,0,0,17.64-8.67c4.32-5.24,11.36-5.24,15.68,0a22.7,22.7,0,0,0,17.64,8.67l.74,0V12.62a10,10,0,0,1-8.56-3.88C89.45,3.13,83.23,0,76.47,0s-13,3.13-17.65,8.74C54.5,14,47.46,14,43.15,8.74,38.49,3.13,32.23,0,25.5,0s-13,3.13-17.65,8.74A10.24,10.24,0,0,1,0,12.68V25.5A22.72,22.72,0,0,0,17.65,16.83Z"/></g></g></svg>