<svg xmlns="http://www.w3.org/2000/svg" viewBox="0 0 24.71 21.84"><defs><style>.cls-1{opacity:0.75;}.cls-2{fill:#fff;}</style></defs><title>Asset 2</title><g id="Layer_2" data-name="Layer 2"><g id="Layer_1-2" data-name="Layer 1"><g class="cls-1"><path class="cls-2" d="M24.71,20.18a2.14,2.14,0,0,1-1.54-.64,3.8,3.8,0,0,0-5.16,0,2.17,2.17,0,0,1-3.08,0,3.79,3.79,0,0,0-5.15,0,2.17,2.17,0,0,1-3.08,0,3.73,3.73,0,0,0-2.58-1,3.73,3.73,0,0,0-2.58,1A2.14,2.14,0,0,1,0,20.18v1.66a3.73,3.73,0,0,0,2.58-1,2.17,2.17,0,0,1,3.08,0,3.79,3.79,0,0,0,5.15,0,2.18,2.18,0,0,1,3.09,0,3.68,3.68,0,0,0,2.57,1,3.73,3.73,0,0,0,2.58-1,2.17,2.17,0,0,1,3.08,0,3.73,3.73,0,0,0,2.58,1"/><path class="cls-2" d="M24.71,14a2.1,2.1,0,0,1-1.54-.64,3.8,3.8,0,0,0-5.16,0,2.17,2.17,0,0,1-3.08,0,3.79,3.79,0,0,0-5.15,0,2.17,2.17,0,0,1-3.08,0,3.73,3.73,0,0,0-2.58-1,3.73,3.73,0,0,0-2.58,1A2.1,2.1,0,0,1,0,14v1.66a3.78,3.78,0,0,0,2.58-1,2.15,2.15,0,0,1,3.08,0,3.82,3.82,0,0,0,5.15,0,2.16,2.16,0,0,1,3.09,0,3.73,3.73,0,0,0,2.57,1,3.78,3.78,0,0,0,2.58-1,2.15,2.15,0,0,1,3.08,0,3.78,3.78,0,0,0,2.58,1"/><path class="cls-2" d="M24.71,7.82a2.1,2.1,0,0,1-1.54-.64,3.83,3.83,0,0,0-5.16,0,2.17,2.17,0,0,1-3.08,0,3.82,3.82,0,0,0-5.15,0,2.17,2.17,0,0,1-3.08,0,3.73,3.73,0,0,0-2.58-1,3.73,3.73,0,0,0-2.58,1A2.1,2.1,0,0,1,0,7.82V9.48a3.73,3.73,0,0,0,2.58-1,2.1,2.1,0,0,1,1.54-.64,2.1,2.1,0,0,1,1.54.64,3.82,3.82,0,0,0,5.15,0,2.18,2.18,0,0,1,3.09,0,3.68,3.68,0,0,0,2.57,1,3.73,3.73,0,0,0,2.58-1,2.17,2.17,0,0,1,3.08,0,3.73,3.73,0,0,0,2.58,1"/><path class="cls-2" d="M24.71,1.65A2.14,2.14,0,0,1,23.17,1,3.8,3.8,0,0,0,18,1a2.14,2.14,0,0,1-1.54.64A2.16,2.16,0,0,1,14.93,1,3.79,3.79,0,0,0,9.78,1a2.16,2.16,0,0,1-1.54.64A2.14,2.14,0,0,1,6.7,1,3.73,3.73,0,0,0,4.12,0,3.73,3.73,0,0,0,1.54,1,2.14,2.14,0,0,1,0,1.65V3.31a3.73,3.73,0,0,0,2.58-1,2.17,2.17,0,0,1,3.08,0,3.73,3.73,0,0,0,2.58,1,3.7,3.7,0,0,0,2.57-1,2.18,2.18,0,0,1,3.09,0,3.68,3.68,0,0,0,2.57,1,3.73,3.73,0,0,0,2.58-1,2.17,2.17,0,0,1,3.08,0,3.73,3.73,0,0,0,2.58,1"/></g></g></g></svg>