<svg xmlns="http://www.w3.org/2000/svg" viewBox="0 0 205.34 25.5"><defs><style>.cls-1{fill:#fff;}</style></defs><title>Asset 3</title><g id="Layer_2" data-name="Layer 2"><g id="Layer_1-2" data-name="Layer 1"><path class="cls-1" d="M85,8.67c-4.32,5.24-11.33,5.24-15.68,0a22.29,22.29,0,0,0-35.29,0c-4.32,5.24-11.36,5.24-15.67,0A22.72,22.72,0,0,0,.74,0L0,0V12.88a10,10,0,0,1,8.56,3.88c4.66,5.61,10.88,8.74,17.65,8.74s13-3.13,17.64-8.74c4.32-5.23,11.36-5.23,15.68,0,4.65,5.61,10.91,8.74,17.64,8.74s13-3.13,17.65-8.74a10.24,10.24,0,0,1,7.85-3.94V0A22.7,22.7,0,0,0,85,8.67Z"/><path class="cls-1" d="M187.7,8.67c-4.32,5.24-11.32,5.24-15.68,0a22.29,22.29,0,0,0-35.29,0c-4.32,5.24-11.35,5.24-15.67,0A22.72,22.72,0,0,0,103.41,0l-.74,0V12.88a10,10,0,0,1,8.56,3.88c4.66,5.61,10.88,8.74,17.65,8.74s13-3.13,17.64-8.74c4.32-5.23,11.36-5.23,15.68,0,4.66,5.61,10.91,8.74,17.64,8.74s13-3.13,17.65-8.74a10.25,10.25,0,0,1,7.85-3.94V0A22.71,22.71,0,0,0,187.7,8.67Z"/></g></g></svg>