<svg xmlns="http://www.w3.org/2000/svg" viewBox="0 0 254.86 25.5"><defs><style>.cls-1{fill:#fff;}</style></defs><title>Asset 2</title><g id="Layer_2" data-name="Layer 2"><g id="Layer_1-2" data-name="Layer 1"><path class="cls-1" d="M127.43,0V12.82a10.24,10.24,0,0,0-7.85,3.94c-4.66,5.61-10.92,8.74-17.65,8.74s-13-3.13-17.64-8.74c-4.32-5.23-11.36-5.23-15.68,0C64,22.37,57.7,25.5,51,25.5s-13-3.13-17.65-8.74C29,11.53,22,11.53,17.65,16.76,13,22.37,6.73,25.5,0,25.5V12.55A10.34,10.34,0,0,0,7.85,8.67,22.78,22.78,0,0,1,25.5,0,22.72,22.72,0,0,1,43.15,8.67c4.31,5.24,11.35,5.24,15.67,0a22.29,22.29,0,0,1,35.29,0c4.35,5.24,11.36,5.24,15.68,0A22.7,22.7,0,0,1,127.43,0Z"/><path class="cls-1" d="M145.08,8.67c4.32,5.24,11.32,5.24,15.67,0a22.29,22.29,0,0,1,35.29,0c4.32,5.24,11.36,5.24,15.68,0a22.29,22.29,0,0,1,35.29,0,10.37,10.37,0,0,0,7.85,3.88v13c-6.73,0-13-3.13-17.64-8.74-4.32-5.23-11.36-5.23-15.68,0-4.65,5.61-10.88,8.74-17.64,8.74s-13-3.13-17.65-8.74c-4.32-5.23-11.35-5.23-15.67,0-4.66,5.61-10.92,8.74-17.65,8.74s-13-3.13-17.64-8.74a10.27,10.27,0,0,0-7.86-3.94V0A22.72,22.72,0,0,1,145.08,8.67Z"/></g></g></svg>